# xmcd
#
# Track frame offsets:
# 150
# 14817
# 35060
# 45955
# 62197
# 85765
# 102942
# 124917
# 140825
# 154252
#
# Disc length: 2312 seconds
#
#
# Revision: 0
# Processed by: cddbd v1.5.1PL0 Copyright (c) Steve Scherf et al.
# Submitted via: FreeRIP 2.941 
#
DISCID=8c09060a
DTITLE=Erich Munzner - Soul Journey
DYEAR=2004
DGENRE=Steely Blues
TTITLE0=Stop The Rain
TTITLE1=Surrender
TTITLE2=Wounded
TTITLE3=Best Thing
TTITLE4=So Good For Me
TTITLE5=Devil's Daughter
TTITLE6=All In You
TTITLE7=Ride
TTITLE8=I Will Be
TTITLE9=Live And Learn
EXTD=
EXTT0=
EXTT1=
EXTT2=
EXTT3=
EXTT4=
EXTT5=
EXTT6=
EXTT7=
EXTT8=
EXTT9=
PLAYORDER=
